<mxfile host="app.diagrams.net" modified="2022-06-02T02:34:24.099Z" agent="5.0 (Windows NT 10.0; Win64; x64) AppleWebKit/537.36 (KHTML, like Gecko) Chrome/102.0.0.0 Safari/537.36" etag="l2rwo7hUGjgkXpYKcBnJ" version="18.2.0" type="github">
  <diagram name="Page-1" id="e7e014a7-5840-1c2e-5031-d8a46d1fe8dd">
    <mxGraphModel dx="1422" dy="762" grid="1" gridSize="10" guides="1" tooltips="1" connect="1" arrows="1" fold="1" page="1" pageScale="1" pageWidth="1169" pageHeight="826" background="none" math="0" shadow="0">
      <root>
        <mxCell id="0" />
        <mxCell id="1" parent="0" />
        <mxCell id="XCaDK8QHSoxDQehriGGn-24" value="Rectangle" style="swimlane;" vertex="1" parent="1">
          <mxGeometry x="480" y="290" width="200" height="270" as="geometry" />
        </mxCell>
        <mxCell id="XCaDK8QHSoxDQehriGGn-26" value="Height&lt;br&gt;Width" style="rounded=0;whiteSpace=wrap;html=1;" vertex="1" parent="XCaDK8QHSoxDQehriGGn-24">
          <mxGeometry y="30" width="200" height="110" as="geometry" />
        </mxCell>
        <mxCell id="XCaDK8QHSoxDQehriGGn-29" value="Area()&lt;br&gt;Perimeter()" style="rounded=0;whiteSpace=wrap;html=1;" vertex="1" parent="XCaDK8QHSoxDQehriGGn-24">
          <mxGeometry y="150" width="200" height="130" as="geometry" />
        </mxCell>
        <mxCell id="XCaDK8QHSoxDQehriGGn-25" value="" style="endArrow=none;html=1;rounded=0;entryX=1;entryY=0.5;entryDx=0;entryDy=0;exitX=0;exitY=0.5;exitDx=0;exitDy=0;" edge="1" parent="1" source="XCaDK8QHSoxDQehriGGn-24" target="XCaDK8QHSoxDQehriGGn-24">
          <mxGeometry width="50" height="50" relative="1" as="geometry">
            <mxPoint x="490" y="430" as="sourcePoint" />
            <mxPoint x="610" y="370" as="targetPoint" />
          </mxGeometry>
        </mxCell>
        <mxCell id="XCaDK8QHSoxDQehriGGn-28" style="edgeStyle=orthogonalEdgeStyle;rounded=0;orthogonalLoop=1;jettySize=auto;html=1;exitX=0;exitY=1;exitDx=0;exitDy=0;" edge="1" parent="1" source="XCaDK8QHSoxDQehriGGn-26">
          <mxGeometry relative="1" as="geometry">
            <mxPoint x="680" y="530" as="targetPoint" />
            <Array as="points">
              <mxPoint x="680" y="430" />
            </Array>
          </mxGeometry>
        </mxCell>
      </root>
    </mxGraphModel>
  </diagram>
</mxfile>
